PathFileType	4	(X/Y/Z)	C:\Users\Basilio\Documents\Thesis Gigler\squatting_fais\c3dfiles\054\SLS_front_pre4\markers_experimental.trc
DataRate	CameraRate	NumFrames	NumMarkers	Units	OrigDataRate	OrigDataStartFrame	OrigNumFrames
200.000000	200.000000	4	61	mm	200.000000	1243	1421
Frame#	Time	FHD			LBHD			RBHD			C7			T10			CLAV			LSHO			LUUPA			LMUPA			LDUPA			LLEP			LMEP			LRAD			LUL			LRFIN			RSHO			RUPA1			RMUPA			RDUPA			RLEP			RMEP			RRAD			RUL			RUFIN			LASI			RASI			USACR			LSACR			RSACR			LTHI1			LTHI2			LTHI3			LTHI4			LLFC			LMFC			LTIB1			LTIB2			LTIB3			LTIB4			LLMAL			LMMAL			LHEE			LMT1			LMT2			LMT5			RTHI			RTHI2			RTHI3			RTHI4			RLFC			RMFC			RTIB1			RTIB2			RTIB3			RTIB4			RLMAL			RMMAL			RHEE			RMT1			RMT2			RMT5			
		X1	Y1	Z1	X2	Y2	Z2	X3	Y3	Z3	X4	Y4	Z4	X5	Y5	Z5	X6	Y6	Z6	X7	Y7	Z7	X8	Y8	Z8	X9	Y9	Z9	X10	Y10	Z10	X11	Y11	Z11	X12	Y12	Z12	X13	Y13	Z13	X14	Y14	Z14	X15	Y15	Z15	X16	Y16	Z16	X17	Y17	Z17	X18	Y18	Z18	X19	Y19	Z19	X20	Y20	Z20	X21	Y21	Z21	X22	Y22	Z22	X23	Y23	Z23	X24	Y24	Z24	X25	Y25	Z25	X26	Y26	Z26	X27	Y27	Z27	X28	Y28	Z28	X29	Y29	Z29	X30	Y30	Z30	X31	Y31	Z31	X32	Y32	Z32	X33	Y33	Z33	X34	Y34	Z34	X35	Y35	Z35	X36	Y36	Z36	X37	Y37	Z37	X38	Y38	Z38	X39	Y39	Z39	X40	Y40	Z40	X41	Y41	Z41	X42	Y42	Z42	X43	Y43	Z43	X44	Y44	Z44	X45	Y45	Z45	X46	Y46	Z46	X47	Y47	Z47	X48	Y48	Z48	X49	Y49	Z49	X50	Y50	Z50	X51	Y51	Z51	X52	Y52	Z52	X53	Y53	Z53	X54	Y54	Z54	X55	Y55	Z55	X56	Y56	Z56	X57	Y57	Z57	X58	Y58	Z58	X59	Y59	Z59	X60	Y60	Z60	X61	Y61	Z61	

1244	6.215	-18.44969177246094	1674.224853515625	-856.619079589844	-174.1259002685547	1733.368041992188	-937.6223144531252	-194.1578216552735	1747.905029296875	-799.0678710937502	-316.1231384277344	1581.185913085938	-862.7675781250002	-399.7068786621095	1251.9892578125	-870.5609130859377	-187.0581512451172	1495.33740234375	-861.6973266601565	-247.0439758300782	1548.843505859375	-1029.353881835938	-306.9870300292969	1330.95458984375	-1146.3818359375	-263.0775146484376	1307.651611328125	-1135.91455078125	-300.7082519531251	1261.765014648438	-1149.173950195313	-292.4851379394532	1211.127685546875	-1147.175048828125	-337.4524536132813	1194.65625	-1079.758666992188	-230.8778381347657	953.458435058594	-1125.112060546875	-274.4482421875001	949.117126464844	-1191.153076171875	-218.9311523437501	864.1536865234377	-1155.667114257813	-257.7836303710938	1546.025634765625	-698.4805908203126	-321.2344665527344	1329.08447265625	-579.3518676757814	-281.7937316894532	1301.678100585938	-582.6567993164064	-325.0666503906251	1259.32666015625	-572.4908447265626	-324.0185546875001	1216.7978515625	-573.5080566406251	-353.7185363769532	1201.964111328125	-645.6312255859376	-203.3889160156251	961.5280761718752	-590.8952636718751	-265.7389526367188	960.2996826171877	-540.9069213867189	-179.3583984375	891.1899414062502	-555.4427490234376	-234.4925689697266	1062.002563476563	-989.3437500000002	-241.4809112548829	1065.39794921875	-736.2653198242189	-414.8924865722657	1163.085815429688	-868.6213989257815	-422.6915283203126	1131.75146484375	-896.7722778320315	-423.537567138672	1131.3974609375	-839.4942016601565	-337.5316467285157	833.1317138671877	-1084.059326171875	-307.5108032226563	753.0906372070314	-1088.405517578125	-259.9488830566407	754.3367919921876	-1081.142944335938	-337.7467041015626	700.5195312500001	-1073.271240234375	-339.3378295898438	545.2730712890626	-1064.142578125	-310.6344299316407	529.3811645507814	-927.5424804687502	-286.0044860839844	383.5163879394532	-1026.660522460938	-330.5413208007813	339.3491516113282	-1090.224609375	-293.6107788085938	337.7490234375001	-1063.918090820313	-292.7016601562501	256.6753234863282	-1038.64697265625	-339.5450134277344	118.090934753418	-1092.00927734375	-310.0473327636719	133.4139862060547	-999.6626586914065	-409.0103149414064	106.0582427978516	-1036.18896484375	-198.425521850586	56.80568695068361	-1015.9111328125	-189.736068725586	57.04595947265626	-1065.1923828125	-242.1577606201172	43.07916259765626	-1116.935913085938	-341.7709655761719	764.0899658203126	-667.7785034179689	-306.5404968261719	707.4666748046876	-664.9365234375001	-272.2080993652344	707.5174560546876	-668.4008178710939	-333.7481079101563	632.0912475585939	-686.6176147460939	-343.7832336425782	539.2180175781251	-691.3621826171876	-289.1752014160157	542.9469604492189	-819.076354980469	-289.3089599609376	429.8354492187501	-698.0703735351564	-361.0075988769532	357.1824035644532	-666.7490844726564	-315.4317932128907	349.6337280273438	-675.2987670898439	-300.7448425292969	299.4099731445313	-699.7640991210939	-359.1323852539063	126.8472366333008	-682.6674194335939	-318.2685852050782	138.2959594726563	-768.094909667969	-419.1267089843751	104.8496398925782	-743.6182250976564	-200.893783569336	54.78041839599611	-747.3168945312501	-201.155746459961	54.54821014404298	-698.8982543945314	-252.5720977783204	42.2545394897461	-652.3021850585939	
1245	6.22	-17.89060974121094	1673.79248046875	-855.2398681640627	-173.996566772461	1733.458862304688	-936.1938476562502	-193.6298522949219	1747.775024414063	-797.3957519531252	-315.8589477539063	1581.261596679688	-861.4441528320315	-399.1624755859376	1251.890014648438	-869.5584106445315	-186.8934020996094	1495.275268554688	-860.3856201171877	-246.6944274902344	1549.0380859375	-1028.003173828125	-306.9316406250001	1331.51611328125	-1145.208251953125	-263.1506652832032	1307.67578125	-1134.8037109375	-301.1509399414063	1262.06103515625	-1148.008911132813	-292.9422912597657	1211.399536132813	-1145.85693359375	-338.0193786621094	1195.18115234375	-1078.306030273438	-233.483383178711	953.2485351562502	-1124.163330078125	-276.3998107910157	949.5183715820315	-1190.48876953125	-223.1347961425782	863.714782714844	-1154.090087890625	-257.3940124511719	1545.869262695313	-697.0436401367189	-321.2633361816407	1328.469848632813	-578.5350341796876	-281.9404602050782	1300.93408203125	-582.0697021484376	-325.2453918457032	1258.697875976563	-572.2716674804689	-324.4956359863282	1216.374877929688	-573.5637207031251	-354.4563598632813	1202.094604492188	-645.7410278320314	-207.9143829345704	959.3484497070315	-591.4409179687501	-270.3384094238282	959.0230102539065	-541.2281494140626	-185.1378021240235	888.2612304687502	-556.7724609375001	-234.3102111816407	1061.963623046875	-988.2373657226565	-240.8228607177735	1065.387084960938	-735.3829345703126	-414.582244873047	1163.143920898438	-867.6815185546877	-423.0979919433595	1131.931762695313	-895.4962158203127	-423.2801513671876	1131.47705078125	-838.463806152344	-337.4106750488282	833.2766113281252	-1083.332153320313	-307.4750061035157	753.1423950195314	-1087.678833007813	-259.8045349121094	754.5241699218751	-1080.463623046875	-337.7965393066407	700.5826416015626	-1072.654663085938	-339.2645874023438	545.2755737304689	-1063.454956054688	-310.1932678222657	529.3054199218751	-927.0771484375002	-285.8569030761719	383.5386962890626	-1026.406860351563	-329.8593750000001	339.3750000000001	-1090.208129882813	-293.5508728027344	337.7773132324219	-1063.6767578125	-292.6422424316407	256.6918334960938	-1038.463989257813	-339.5224914550782	118.1857147216797	-1091.974975585938	-309.9739685058594	133.4533996582032	-999.595886230469	-408.9974060058595	106.0905151367188	-1036.152709960938	-198.3957519531251	56.81356811523439	-1015.899841308594	-189.7368316650391	57.04301834106447	-1065.202270507813	-242.1434020996094	43.12969589233399	-1116.934448242188	-341.1719970703126	764.0182495117189	-666.9338989257814	-305.9991760253907	707.5322875976564	-664.5425415039064	-271.7549133300782	707.4836425781251	-667.6846923828126	-333.5507202148438	632.1099853515626	-685.8469848632814	-343.5286560058594	539.1525268554689	-690.8348999023439	-288.9382934570313	543.0304565429689	-818.696228027344	-289.1591796875001	429.7990112304689	-697.6466674804689	-360.9518737792969	357.1234741210938	-666.4909057617189	-315.4351501464844	349.5659790039063	-675.1406860351564	-300.6029052734376	299.3426513671876	-699.4575805664064	-359.1463317871094	126.8576583862305	-682.6586303710939	-318.2186584472657	138.314193725586	-767.9472656250001	-419.129608154297	104.8527297973633	-743.5900878906251	-200.8541259765626	54.76783370971681	-747.2301025390626	-201.1806030273438	54.53033447265626	-698.9384155273439	-252.5209503173829	42.16963958740235	-652.3074951171876	
1246	6.225000000000001	-17.35943603515625	1673.47998046875	-853.9580078125002	-173.311752319336	1733.490600585938	-934.6627197265627	-193.1544036865235	1747.639038085938	-795.9302368164065	-315.6051940917969	1581.321166992188	-859.9357910156252	-398.760955810547	1251.87158203125	-868.4869384765627	-187.150863647461	1495.19287109375	-859.0938110351565	-246.521713256836	1549.289428710938	-1026.702880859375	-306.4013366699219	1331.7646484375	-1144.125	-263.2618713378907	1308.0087890625	-1133.526123046875	-301.4513549804688	1262.47900390625	-1146.730590820313	-293.4147644042969	1211.6923828125	-1144.591918945313	-338.5645141601563	1195.64453125	-1077.295532226563	-236.0374603271485	953.1738281250002	-1123.088500976563	-277.9578857421876	949.891540527344	-1189.977172851563	-226.4674530029297	863.375183105469	-1152.4814453125	-257.0837402343751	1545.607055664063	-695.8150634765626	-320.9532165527344	1327.971557617188	-577.6847534179689	-281.8821105957032	1300.310302734375	-581.6240234375001	-325.3762817382813	1258.237915039063	-572.0119628906251	-324.7723693847657	1215.888793945313	-573.6985473632814	-355.0708312988282	1202.125	-645.9041748046876	-212.5729064941407	957.1765747070315	-591.9838256835939	-274.6751403808594	957.8897094726565	-541.4063720703126	-191.1124114990235	885.3404541015627	-557.5873413085939	-234.1167449951172	1061.964721679688	-987.303405761719	-240.1509704589844	1065.391967773438	-734.6124267578126	-414.1785888671876	1163.114624023438	-866.593200683594	-422.537322998047	1132.018798828125	-894.5176391601565	-422.0840759277345	1131.453002929688	-837.4124145507815	-337.6294860839844	833.3547363281252	-1082.688598632813	-307.1689758300782	753.3115844726564	-1087.040649414063	-259.7818298339844	754.5878295898439	-1079.861206054688	-337.7694091796876	700.6903076171876	-1072.005249023438	-339.1320190429688	545.4268188476564	-1062.80908203125	-309.6368408203126	529.2233886718751	-926.4570312500002	-285.7165527343751	383.5780334472657	-1026.097534179688	-330.6146545410157	339.5245056152344	-1089.476928710938	-293.5224609375001	337.8241882324219	-1063.439208984375	-292.5884399414063	256.7302551269532	-1038.351806640625	-339.4967651367188	118.2369155883789	-1091.893188476563	-309.9647521972657	133.4627075195313	-999.466735839844	-408.984100341797	106.1096572875977	-1036.157958984375	-198.3768768310547	56.80417251586915	-1015.89892578125	-189.6908416748047	57.04946899414064	-1065.212036132813	-242.1215209960938	43.15264892578126	-1116.923461914063	-340.6123352050782	764.0506591796876	-666.1977539062501	-305.4318237304688	707.4417114257814	-664.0539550781251	-271.3373413085938	707.4708251953126	-667.1651000976564	-333.1130371093751	632.0193481445314	-685.2428588867189	-343.3265380859376	539.1289062500001	-690.3554687500001	-288.0770568847657	543.0532836914064	-818.146179199219	-288.9819030761719	429.7884826660157	-697.2058715820314	-360.8424072265626	357.0471801757813	-666.1969604492189	-315.3814697265626	349.5124511718751	-674.8949584960939	-300.4562377929688	299.2702941894532	-699.2036743164064	-359.1036682128907	126.835205078125	-682.6232299804689	-318.2228088378907	138.3140258789063	-767.9227294921876	-419.1054077148439	104.8633193969727	-743.5771484375001	-200.8721771240235	54.76381683349611	-747.2627563476564	-201.1570892333985	54.54537200927736	-698.9356689453126	-252.5692291259766	42.11703491210938	-652.2529907226564	
1247	6.23	-16.91715621948243	1673.300537109375	-852.6391601562502	-173.0740509033203	1733.507690429688	-933.3062744140627	-192.5399017333985	1747.53076171875	-794.3733520507815	-315.2673339843751	1581.366455078125	-858.4939575195315	-398.3377990722657	1251.846069335938	-867.472106933594	-186.8322448730469	1495.196044921875	-857.8338623046877	-246.2954406738282	1549.471435546875	-1025.385986328125	-306.4711914062501	1332.152465820313	-1142.989135742188	-263.4434814453126	1308.230346679688	-1132.328979492188	-301.8139038085938	1262.863891601563	-1145.65380859375	-293.8512573242188	1212.068603515625	-1143.246826171875	-339.4388427734376	1196.317993164063	-1076.164184570313	-238.1642608642579	953.2991943359377	-1122.141479492188	-279.5164184570313	950.2893676757815	-1189.271606445313	-229.4726715087891	863.326843261719	-1151.088500976563	-256.7684631347657	1545.430053710938	-694.3455810546876	-320.7452087402344	1327.513671875	-577.0219116210939	-281.8204040527344	1299.5869140625	-581.2322387695314	-325.5978698730469	1257.680053710938	-571.7130737304689	-325.1720581054688	1215.399047851563	-573.8383789062501	-355.2730407714844	1202.21044921875	-646.2007446289064	-217.2335662841797	955.2061767578127	-592.3762207031251	-279.0690612792969	956.900573730469	-541.8458862304689	-196.7546386718751	882.7496337890627	-558.6973876953126	-233.8170318603516	1061.98193359375	-986.3399047851565	-239.2832946777344	1065.487426757813	-733.8179321289064	-413.6101989746095	1163.160522460938	-865.4453735351565	-422.2727966308595	1132.139038085938	-893.4625244140627	-422.2753906250001	1131.519287109375	-836.4380493164065	-337.4541015625001	833.4937133789065	-1081.70361328125	-307.2183227539063	753.3904418945314	-1086.401245117188	-259.8563232421876	754.5473022460939	-1079.399169921875	-337.6823425292969	700.7174072265626	-1071.172607421875	-338.5878906250001	545.5089721679689	-1062.460815429688	-309.2293395996094	529.0911865234376	-926.0476074218752	-285.5884704589844	383.5742187500001	-1025.8837890625	-329.9643554687501	339.6326904296876	-1089.4833984375	-293.4715881347657	337.8833618164063	-1063.181884765625	-292.5309448242188	256.7818603515626	-1038.1708984375	-339.3453674316407	118.3564453125	-1091.838745117188	-309.8876647949219	133.4822998046875	-999.4133300781252	-409.0124816894532	106.1555633544922	-1036.100463867188	-198.3789672851563	56.82271957397462	-1015.917358398438	-189.7353210449219	57.06500244140626	-1065.1865234375	-242.145004272461	43.18943786621094	-1116.92919921875	-340.0156250000001	763.9467163085939	-665.8110351562501	-305.0881958007813	707.4047851562501	-663.1280517578126	-270.8392028808594	707.2855834960939	-666.4381713867189	-332.5733642578126	632.0031127929689	-684.5978393554689	-343.0924987792969	539.0825195312501	-689.8854370117189	-287.8324279785157	543.1861572265626	-817.6779785156252	-288.8708801269532	429.7733764648439	-696.8039550781251	-360.8182678222657	356.9933166503907	-665.8766479492189	-315.3660888671876	349.3575439453126	-674.5791625976564	-300.3290405273438	299.2612609863282	-698.9624023437501	-359.0953979492188	126.8056411743164	-682.5849609375001	-318.1597900390626	138.3270568847657	-767.8685302734376	-419.1091308593751	104.8467636108399	-743.5789184570314	-200.8707122802735	54.7709426879883	-747.2294311523439	-201.1393432617188	54.55091857910158	-698.9083862304689	-252.5686492919922	42.10643386840821	-652.2553710937501	
